<?xml version="1.0" encoding="UTF-8"?>
<svg id="Layer_2" data-name="Layer 2" xmlns="http://www.w3.org/2000/svg" viewBox="0 0 800 800">
  <defs>
    <style>
      .cls-1 {
        fill: #2C2C2C ;
      }
    </style>
  </defs>
  <g id="PeopleIcon" data-name="Layer 5">
    <ellipse class="cls-1" cx="400" cy="461.41" rx="145.19" ry="270.59"/>
    <ellipse class="cls-1" cx="400" cy="83.04" rx="60.61" ry="83.04"/>
    <g>
      <path class="cls-1" d="m654.81,258.82c-25.6,0-49.64,12.36-70.52,34.03,17.52,50.43,26.91,108.46,26.91,168.56,0,82.97-17.89,162.01-50.37,222.54-4.67,8.7-9.6,16.93-14.77,24.71,26.6,56.01,65.46,91.34,108.75,91.34,80.19,0,145.19-121.15,145.19-270.59s-65-270.59-145.19-270.59Z"/>
      <ellipse class="cls-1" cx="654.81" cy="158.04" rx="60.61" ry="83.04"/>
      <path class="cls-1" d="m188.81,461.41c0-60.1,9.39-118.13,26.91-168.56-20.88-21.67-44.93-34.03-70.52-34.03C65.01,258.82,0,379.97,0,529.41c0,149.44,65,270.59,145.19,270.59,43.29,0,82.15-35.32,108.75-91.34-5.17-7.78-10.1-16.02-14.77-24.71-32.48-60.53-50.37-139.57-50.37-222.54Z"/>
      <ellipse class="cls-1" cx="145.19" cy="151.04" rx="60.61" ry="83.04"/>
    </g>
  </g>
</svg>