<?xml version="1.0" encoding="UTF-8"?>
<svg id="Layer_2" data-name="Layer 2" xmlns="http://www.w3.org/2000/svg" viewBox="0 0 700 700">
<defs>
    <style>
      .cls-1 {
        fill: currentColor;
      }
    </style>
  </defs>
  <g class="cls-1" id="Plus">
    <path d="m665,315h-280V32.74c0-18.08-14.66-32.74-32.74-32.74h-4.52c-18.08,0-32.74,14.66-32.74,32.74v282.26H35c-19.33,0-35,15.67-35,35h0c0,19.33,15.67,35,35,35h280v282.26c0,18.08,14.66,32.74,32.74,32.74h4.52c18.08,0,32.74-14.66,32.74-32.74v-282.26h280c19.33,0,35-15.67,35-35h0c0-19.33-15.67-35-35-35Z"/>
  </g>
</svg>