<?xml version="1.0" encoding="UTF-8"?>
<svg id="Layer_2" data-name="Layer 2" xmlns="http://www.w3.org/2000/svg" viewBox="0 0 800 800">
  <g id="Search">
    <g>
      <path d="m486.86,576.57h259.41c44.15,0,80,35.85,80,80h0c0,44.15-35.85,80-80,80h-259.41v-160h0Z" transform="translate(656.57 -271.96) rotate(45)"/>
      <path d="m672.44,213.72c-17.64-41.69-42.85-79.11-74.95-111.21-32.1-32.1-69.51-57.32-111.21-74.95C443.04,9.27,397.19,0,350,0s-93.04,9.27-136.28,27.56c-41.69,17.64-79.11,42.85-111.21,74.95-32.1,32.1-57.32,69.51-74.95,111.21C9.27,256.96,0,302.81,0,350s9.27,93.04,27.56,136.28c17.64,41.69,42.85,79.11,74.95,111.21,32.1,32.1,69.51,57.32,111.21,74.95,43.24,18.29,89.09,27.56,136.28,27.56s93.04-9.27,136.28-27.56c41.69-17.64,79.11-42.85,111.21-74.95,32.1-32.1,57.32-69.51,74.95-111.21,18.29-43.24,27.56-89.09,27.56-136.28s-9.27-93.04-27.56-136.28Zm-322.44,346.28c-115.98,0-210-94.02-210-210s94.02-210,210-210,210,94.02,210,210-94.02,210-210,210Z"/>
    </g>
  </g>
</svg>