<?xml version="1.0" encoding="UTF-8"?>
<svg id="Layer_2" data-name="Layer 2" xmlns="http://www.w3.org/2000/svg" viewBox="0 0 700 700">
  <g id="Search">
    <g>
      <path d="m481.9,82.68C428.58,29.36,357.69,0,282.29,0S136,29.36,82.68,82.68C29.36,136,0,206.89,0,282.29s29.36,146.29,82.68,199.61c53.32,53.32,124.21,82.68,199.61,82.68s146.29-29.36,199.61-82.68c53.32-53.32,82.68-124.21,82.68-199.61s-29.36-146.29-82.68-199.61Zm-199.61,419.91c-121.67,0-220.3-98.63-220.3-220.3S160.62,61.99,282.29,61.99s220.3,98.63,220.3,220.3-98.63,220.3-220.3,220.3Z"/>
      <rect x="388.43" y="529.6" width="352.92" height="70.58" rx="35.29" ry="35.29" transform="translate(564.89 -233.98) rotate(45)"/>
    </g>
  </g>
</svg>